<?xml version="1.0" standalone="no"?>
<!DOCTYPE svg PUBLIC "-//W3C//DTD SVG 20010904//EN"
 "http://www.w3.org/TR/2001/REC-SVG-20010904/DTD/svg10.dtd">
<svg version="1.0" xmlns="http://www.w3.org/2000/svg"
 width="163.000000pt" height="28.000000pt" viewBox="0 0 163.000000 28.000000"
 preserveAspectRatio="xMidYMid meet">

<g transform="translate(0.000000,28.000000) scale(0.100000,-0.100000)"
fill="#000000" stroke="none">
<path d="M0 185 c0 -78 3 -95 15 -95 12 0 15 14 15 65 0 36 4 65 9 65 4 0 16
-20 25 -45 14 -36 23 -45 41 -45 19 0 27 10 42 48 l18 47 5 -65 c4 -58 7 -65
28 -68 21 -3 22 -1 22 92 l0 96 -34 0 c-31 0 -35 -4 -56 -52 l-23 -53 -23 53
c-21 46 -27 52 -54 52 l-30 0 0 -95z"/>
<path d="M416 262 c-68 -76 13 -204 110 -172 31 10 64 43 64 62 0 16 -37 7
-55 -12 -10 -11 -28 -20 -41 -20 -25 0 -64 43 -64 70 0 27 39 70 63 70 11 0
31 -9 43 -21 12 -11 29 -19 38 -17 13 2 14 7 3 28 -11 22 -20 25 -78 28 -54 2
-68 0 -83 -16z"/>
<path d="M963 260 c-3 -11 -9 -20 -14 -20 -5 0 -9 -7 -9 -15 0 -8 4 -15 9 -15
5 0 11 -23 13 -51 6 -55 18 -69 61 -69 34 0 35 17 2 30 -21 8 -25 16 -25 49 0
32 4 40 20 43 29 4 30 22 3 26 -15 2 -23 10 -23 23 0 25 -30 25 -37 -1z"/>
<path d="M1380 260 c0 -11 -4 -20 -10 -20 -5 0 -10 -7 -10 -15 0 -8 5 -15 10
-15 6 0 10 -20 10 -44 0 -52 19 -76 61 -76 36 0 38 17 4 30 -21 8 -25 16 -25
49 0 33 3 40 23 43 12 2 22 8 22 13 0 6 -10 11 -22 13 -15 2 -23 10 -23 23 0
12 -7 19 -20 19 -13 0 -20 -7 -20 -20z"/>
<path d="M252 173 c11 -38 27 -73 35 -80 18 -14 9 -33 -18 -33 -10 0 -19 -7
-19 -15 0 -19 63 -21 78 -2 11 14 52 155 52 180 0 23 -40 23 -41 0 0 -10 -6
-36 -13 -58 l-13 -40 -18 58 c-15 46 -23 57 -41 57 l-22 0 20 -67z"/>
<path d="M621 214 c-27 -35 -27 -66 2 -99 30 -35 88 -39 119 -7 31 30 30 88
-1 113 -36 29 -95 25 -120 -7z m85 -12 c18 -12 24 -42 13 -63 -16 -30 -61 -22
-73 13 -15 42 24 75 60 50z"/>
<path d="M790 165 c0 -68 2 -75 20 -75 17 0 20 7 20 49 0 31 5 53 15 61 26 21
45 -5 45 -61 0 -42 3 -49 20 -49 18 0 20 7 20 56 0 30 -5 64 -10 75 -12 21
-50 25 -81 9 -13 -7 -19 -7 -19 0 0 5 -7 10 -15 10 -12 0 -15 -15 -15 -75z"/>
<path d="M1070 226 c0 -10 13 -16 37 -18 43 -4 59 -28 18 -28 -42 0 -65 -17
-65 -49 0 -17 6 -31 16 -35 25 -10 59 -7 72 6 9 9 12 9 12 0 0 -7 7 -12 15
-12 24 0 21 112 -3 133 -24 22 -102 23 -102 3z m80 -86 c0 -24 -26 -38 -42
-22 -16 16 -2 42 22 42 13 0 20 -7 20 -20z"/>
<path d="M1231 214 c-25 -32 -27 -71 -5 -102 22 -32 96 -31 119 1 14 20 14 22
-1 25 -9 2 -21 -1 -27 -7 -16 -16 -54 -13 -61 5 -18 46 10 87 45 66 26 -16 49
-15 49 3 0 19 -31 35 -69 35 -20 0 -36 -8 -50 -26z"/>
<path d="M1492 228 c-31 -31 -3 -78 47 -78 24 0 37 -18 23 -32 -8 -8 -20 -7
-41 2 -40 16 -59 10 -37 -13 11 -11 33 -17 62 -17 38 0 46 4 56 25 14 32 -4
54 -53 64 -46 9 -37 27 11 23 41 -2 49 5 28 26 -16 16 -80 16 -96 0z"/>
</g>
</svg>
